PathFileType  4	(X/Y/Z) C:\Users\antoi\Documents\MyRepositories\mobilecap\ResultsAnalysis
DataRate	CameraRate	NumFrames	NumMarkers	Units	OrigDataRate	OrigDataStartFrame	OrigNumFrames
100.0	100.0	6	51	mm	100.0	139	158
Frame#	Time	r_knee			r_shank_antsup			r_ankle			r_calc			r_5meta			r_toe			L_knee			L_shank_antsup			L_ankle			L_calc			L_5meta			L_toe			r_sh2			r_sh3			r_sh4			L_sh2			L_sh3			r_thigh1			r_thigh2			r_thigh3			r_thigh4			r_thigh5			L_thigh1			L_thigh2			L_thigh3			L_thigh4			r.ASIS			r.PSIS			L.ASIS			L.PSIS			C7			R_Shoulder			L_Shoulder			R_Sternum			L_Sternum			R_humerus			R_elbow_med			R_elbow_lat			R_forearm			R_wrist_radius			R_wrist_ulna			L_humerus			L_elbow_med			L_elbow_lat			L_forearm			L_wrist_radius			L_wrist_ulna			R_HJC			L_HJC			R_HJC_reg			L_HJC_reg			
		X1	Y1	Z1	X2	Y2	Z2	X3	Y3	Z3	X4	Y4	Z4	X5	Y5	Z5	X6	Y6	Z6	X7	Y7	Z7	X8	Y8	Z8	X9	Y9	Z9	X10	Y10	Z10	X11	Y11	Z11	X12	Y12	Z12	X13	Y13	Z13	X14	Y14	Z14	X15	Y15	Z15	X16	Y16	Z16	X17	Y17	Z17	X18	Y18	Z18	X19	Y19	Z19	X20	Y20	Z20	X21	Y21	Z21	X22	Y22	Z22	X23	Y23	Z23	X24	Y24	Z24	X25	Y25	Z25	X26	Y26	Z26	X27	Y27	Z27	X28	Y28	Z28	X29	Y29	Z29	X30	Y30	Z30	X31	Y31	Z31	X32	Y32	Z32	X33	Y33	Z33	X34	Y34	Z34	X35	Y35	Z35	X36	Y36	Z36	X37	Y37	Z37	X38	Y38	Z38	X39	Y39	Z39	X40	Y40	Z40	X41	Y41	Z41	X42	Y42	Z42	X43	Y43	Z43	X44	Y44	Z44	X45	Y45	Z45	X46	Y46	Z46	X47	Y47	Z47	X48	Y48	Z48	X49	Y49	Z49	X50	Y50	Z50	X51	Y51	Z51	

139	1.38000000	1436.12284	545.35608	-203.24647	1490.63948	425.84222	-218.17846	1442.74361	89.61583	-243.20183	1385.29125	59.78607	-300.64876	1574.16002	34.01233	-186.84632	1617.47731	65.03435	-252.38921	1127.32969	536.26920	-547.49808	1108.90745	422.50047	-539.05630	849.00074	169.22595	-525.40618	784.58356	174.49008	-469.49516	935.71466	31.87525	-548.59524	977.69071	48.32151	-484.96930	1509.64057	316.00242	-242.79178	1430.63012	405.08080	-174.17413	1454.18862	290.89567	-184.06307	1035.09499	467.19382	-568.34293	988.35883	355.74729	-585.16735	1442.88156	793.15417	-205.15891	1481.41529	688.96966	-222.71177	1460.73530	648.46248	-171.66629	1361.33627	749.96661	-139.55560	1407.25544	645.28099	-162.63651	1277.05286	758.79344	-556.90011	1250.83346	624.87076	-553.52243	1167.73769	778.75355	-578.27326	1140.52768	642.64520	-564.36758	1341.82278	1017.18395	-213.59053	1141.45043	1055.57628	-303.63945	1352.94565	1005.36135	-481.03078	1143.64745	1058.41641	-400.94721	1254.65392	1541.81224	-447.02008	1299.88872	1508.91643	-242.78825	1328.31436	1437.41878	-597.08417	1379.30283	1454.53167	-389.51531	1380.05735	1441.13540	-435.35398	1278.87660	1355.52242	-139.07438	1165.14597	1146.60077	-147.81231	1188.84396	1178.56538	-73.86036	1264.22249	1023.66187	-42.72073	1282.35994	905.76456	-15.33591	1252.66458	905.21968	14.07317	1341.89849	1262.69065	-653.03133	1270.32337	1048.39924	-621.99599	1315.89566	1065.23816	-686.69746	1434.17033	956.83062	-630.73828	1497.68697	854.98287	-631.51380	1476.68983	840.78538	-672.58609	1257.89543	939.41112	-248.98136	1265.63583	921.92085	-461.51664	1270.01178	929.17017	-255.68006	1273.99706	934.32634	-432.39913	
140	1.39000000	1447.59691	545.71864	-201.59630	1499.56223	424.47954	-216.71933	1443.87309	89.89877	-243.32060	1385.76342	60.38520	-300.65133	1574.20565	33.99719	-186.48258	1618.18909	63.40400	-252.55169	1147.45033	534.37768	-548.82478	1126.39047	421.17204	-540.90234	859.22043	176.33557	-526.29852	795.25718	185.66325	-469.71752	937.88313	33.78075	-548.55004	980.47302	48.52122	-485.00889	1515.97308	314.41942	-241.84752	1439.04777	405.07182	-173.06566	1459.85447	290.30656	-183.27252	1053.82680	468.22010	-569.27020	1003.51477	358.32778	-586.29054	1456.21585	794.20587	-202.08479	1494.18915	689.83878	-219.91327	1473.09336	649.31975	-169.14295	1374.02311	751.19512	-137.29280	1419.74356	646.48304	-160.17247	1292.77162	758.95277	-556.83644	1269.50479	624.43820	-554.53294	1183.14545	776.88180	-577.39952	1158.81080	640.18762	-564.92699	1354.92232	1019.62379	-212.17615	1154.14832	1055.94390	-302.24263	1364.75917	1006.29775	-479.80372	1155.66870	1058.56338	-399.58756	1266.14290	1543.92262	-441.68459	1311.47409	1508.78965	-237.90975	1340.14827	1441.80074	-592.91412	1390.89352	1456.20932	-385.08337	1391.66060	1443.32392	-431.01107	1291.88009	1354.01128	-136.22440	1180.04355	1144.24607	-147.57848	1202.90537	1175.86065	-73.03355	1278.31044	1021.08147	-41.99601	1296.43231	903.07208	-14.90377	1266.37107	902.52092	14.25686	1351.26915	1266.48290	-650.06674	1274.87606	1053.84979	-618.86548	1320.30289	1069.74233	-683.98117	1434.60203	956.03784	-630.52915	1493.46737	851.50454	-633.16963	1471.80141	838.90414	-674.22451	1271.26510	941.06528	-247.12781	1278.40524	922.37909	-459.58187	1283.86863	930.32243	-253.57874	1286.62229	935.07864	-430.47498	
141	1.40000000	1457.62100	545.58456	-200.04982	1507.47612	423.02378	-215.32242	1444.74012	90.10106	-243.50562	1386.04967	60.76893	-300.69322	1574.18550	34.09595	-186.20770	1618.68315	62.19690	-252.66095	1168.58051	532.20815	-550.29174	1145.02935	419.76446	-542.69862	870.73283	184.16037	-527.04809	807.51676	197.80078	-469.79704	940.44636	36.72368	-548.52495	983.67342	49.34608	-485.01604	1521.42639	312.77803	-240.95160	1446.29626	404.80949	-172.16957	1464.66913	289.60873	-182.61705	1073.91384	469.07621	-570.32774	1020.01535	360.93207	-587.37799	1469.08963	794.40133	-198.94631	1505.91956	689.62835	-217.16742	1484.12867	649.18991	-166.76800	1385.92364	751.91675	-135.19144	1430.66007	646.89623	-158.07635	1308.88302	759.07734	-556.92166	1288.98641	623.98699	-555.80729	1198.95377	774.62625	-576.67541	1177.90798	637.36523	-565.81315	1368.06254	1022.12025	-210.80890	1166.82043	1056.31821	-300.67479	1376.40204	1007.21268	-478.62337	1167.60941	1058.76159	-398.01959	1277.48330	1546.04607	-436.43439	1323.05270	1508.86079	-233.16078	1351.76506	1446.24758	-588.74434	1402.40925	1457.94323	-380.73610	1403.13285	1445.51038	-426.74070	1304.77730	1352.86592	-133.35184	1194.75799	1142.33808	-147.29316	1216.80991	1173.54787	-72.17591	1292.47251	1018.96620	-41.36118	1310.77905	900.84855	-14.68200	1280.37492	900.24348	14.22177	1360.47957	1270.42027	-647.16439	1279.51714	1059.59558	-615.49622	1324.65862	1074.50327	-681.15382	1434.78199	955.60575	-630.43679	1488.71294	848.53571	-635.04425	1466.32285	837.54289	-676.10299	1284.66750	942.76152	-245.21234	1291.00682	922.84837	-457.57942	1297.75674	931.41791	-251.52712	1299.18088	935.85749	-428.59412	
142	1.41000000	1466.33012	545.09047	-198.67347	1514.53202	421.56026	-214.12255	1445.44387	90.23933	-243.73127	1386.22744	61.04096	-300.75917	1574.14400	34.20466	-186.02025	1619.02117	61.24525	-252.71701	1190.55445	529.84119	-551.85725	1164.79679	418.26200	-544.33663	883.51666	192.71115	-527.62037	821.44475	210.82498	-469.78580	943.52013	40.88724	-548.54041	987.35237	50.99289	-485.02607	1526.13655	311.13587	-240.22546	1452.62656	404.37862	-171.48233	1468.89305	288.88478	-182.09523	1095.29768	469.74496	-571.51457	1037.84827	363.54390	-588.35147	1481.42717	793.87348	-195.96737	1516.57687	688.50139	-214.67976	1493.93022	648.24639	-164.69356	1397.07718	752.21738	-133.33540	1440.08841	646.60688	-156.47670	1325.30011	759.19236	-557.13283	1309.11004	623.56556	-557.27864	1215.07343	772.04822	-576.15019	1197.69819	634.26346	-566.99865	1381.20821	1024.50357	-209.57599	1179.39070	1056.76376	-298.88226	1387.82826	1008.03368	-477.51311	1179.41550	1058.98114	-396.21055	1288.67310	1548.14797	-431.28026	1334.63756	1509.03816	-228.54591	1363.09116	1450.67452	-584.61491	1413.82766	1459.70482	-376.52618	1414.47327	1447.64357	-422.60310	1317.54716	1351.99434	-130.42569	1209.21264	1140.79075	-146.85308	1230.53379	1171.54141	-71.21696	1306.69387	1017.22200	-40.79241	1325.40474	899.00930	-14.67525	1294.66996	898.25074	13.97091	1369.47296	1274.42047	-644.28510	1284.22620	1065.53950	-611.91976	1328.96989	1079.43491	-678.23852	1434.76658	955.51766	-630.47540	1483.58369	846.11130	-637.12619	1460.38511	836.72720	-678.22476	1298.01569	944.41252	-243.27051	1303.29739	923.29305	-455.54809	1311.48479	932.56179	-249.53745	1311.52076	936.59412	-426.72673	
143	1.42000000	1474.00708	544.41059	-197.52817	1520.89477	420.15963	-213.21616	1446.05268	90.34064	-243.97420	1386.35328	61.28011	-300.83366	1574.11188	34.28540	-185.91488	1619.24006	60.42956	-252.75337	1213.19993	527.40692	-553.48145	1185.60246	416.70727	-545.73175	897.58776	201.91251	-527.97059	837.12960	224.56947	-469.70471	947.28513	46.35676	-548.59715	991.60958	53.55649	-485.05518	1530.25907	309.55105	-239.75361	1458.28851	403.86149	-170.99183	1472.74932	288.20394	-181.70704	1117.84120	470.26239	-572.80484	1056.93959	366.17710	-589.13616	1493.20092	792.89209	-193.38955	1526.29201	686.80027	-212.63616	1502.77873	646.82723	-163.03357	1407.62691	752.27556	-131.77576	1448.35454	645.83956	-155.40161	1341.93352	759.36386	-557.42610	1329.68118	623.26387	-558.83978	1231.40751	769.28334	-575.82381	1218.02904	631.03359	-568.39903	1394.29890	1026.65221	-208.54709	1191.78339	1057.35336	-296.86288	1398.98315	1008.72389	-476.47897	1191.02948	1059.20516	-394.17531	1299.72452	1550.20952	-426.23455	1346.25190	1509.24457	-224.07395	1374.09091	1455.01227	-580.57133	1425.13578	1461.47024	-372.51020	1425.70208	1449.68513	-418.65655	1330.19844	1351.30306	-127.44282	1223.36207	1139.51835	-146.17729	1244.08688	1169.76193	-70.10198	1320.97093	1015.75310	-40.28035	1340.29910	897.46719	-14.88194	1309.23813	896.42045	13.52204	1378.20622	1278.41089	-641.42023	1288.98966	1071.58108	-608.14172	1333.23548	1084.45586	-675.25067	1434.60375	955.76060	-630.66111	1478.22799	844.24795	-639.40436	1454.13044	836.49071	-680.55097	1311.20761	945.96566	-241.34399	1315.15801	923.69744	-453.53013	1324.86860	933.87965	-247.60536	1323.49111	937.24972	-424.82584	
144	1.43000000	1480.98796	543.70513	-196.65095	1526.72086	418.87171	-212.64059	1446.60928	90.43538	-244.21251	1386.46070	61.53504	-300.89866	1574.10647	34.33447	-185.87875	1619.37167	59.68529	-252.81180	1236.35021	525.07383	-555.12784	1207.29816	415.20433	-546.83337	913.01099	211.58045	-528.04721	854.64147	238.76146	-469.52122	951.98130	53.08687	-548.67010	996.59143	57.00425	-485.09261	1533.95488	308.07815	-239.56373	1463.49314	403.32725	-170.67390	1476.39807	287.61201	-181.44427	1141.33543	470.71153	-574.15073	1077.15559	368.85440	-589.68062	1504.42679	791.75385	-191.40804	1535.29842	684.90957	-211.16063	1511.03326	645.29706	-161.84270	1417.75700	752.28643	-130.52761	1455.91843	644.88286	-154.78046	1358.70376	759.68691	-557.74988	1350.49794	623.20009	-560.37558	1247.87347	766.52209	-575.64217	1238.72392	627.88005	-569.88907	1407.26220	1028.51135	-207.76177	1203.94550	1058.13745	-294.67022	1409.80416	1009.28941	-475.51646	1202.40870	1059.42742	-391.97346	1310.65593	1552.22685	-421.31032	1357.92191	1509.42405	-219.75676	1384.76570	1459.20859	-576.65684	1436.32920	1463.21512	-368.73707	1436.84298	1451.60960	-414.94808	1342.76401	1350.70806	-124.42658	1237.19495	1138.44280	-145.21084	1257.50506	1168.14323	-68.79482	1335.31092	1014.47462	-39.82861	1355.43740	896.14112	-15.29477	1324.06783	894.66577	12.90250	1386.65375	1282.33148	-638.59470	1293.80042	1077.61851	-604.15759	1337.44003	1089.49309	-672.20289	1434.33217	956.32786	-631.00868	1472.76110	842.94973	-641.86916	1447.69466	836.86730	-683.01624	1324.15246	947.40411	-239.47868	1326.51909	924.06601	-451.56972	1337.77479	935.47016	-245.72236	1334.97825	937.82015	-422.85266	
